<svg xmlns="http://www.w3.org/2000/svg" width="272" height="204" viewBox="0 0 272 204"><defs><style>.a{fill:#f2e1ff;}.b{fill:#e2bfff;}.c{fill:#3a36e4;}</style></defs><rect class="a" width="272" height="204"/><rect class="b" x="73" y="38.815" width="126" height="126" rx="18.16"/><path class="c" d="M167.818,136.5H104.181a1.5,1.5,0,0,1-1.5-1.5V114.117a1.5,1.5,0,0,1,3,0V133.5h60.637V113.9a1.5,1.5,0,1,1,3,0V135A1.5,1.5,0,0,1,167.818,136.5Z"/><path class="c" d="M150.318,79.226a1.5,1.5,0,0,1-1.5-1.5V71.362a4.869,4.869,0,0,0-4.863-4.864H128.046a4.87,4.87,0,0,0-4.865,4.864v6.364a1.5,1.5,0,0,1-3,0V71.362a7.874,7.874,0,0,1,7.865-7.864h15.909a7.872,7.872,0,0,1,7.863,7.864v6.364A1.5,1.5,0,0,1,150.318,79.226Z"/><path class="c" d="M161.455,117.407h-18.63a1.5,1.5,0,0,1,0-3h18.63a8.055,8.055,0,0,0,8.045-8.045V79.226h-67v27.136a8.054,8.054,0,0,0,8.046,8.045H129.21a1.5,1.5,0,0,1,0,3H110.546A11.058,11.058,0,0,1,99.5,106.362V77.726a1.5,1.5,0,0,1,1.5-1.5h70a1.5,1.5,0,0,1,1.5,1.5v28.636A11.058,11.058,0,0,1,161.455,117.407Z"/><path class="c" d="M140.772,121.527h-9.545a1.5,1.5,0,0,1-1.5-1.5v-9.546a1.5,1.5,0,0,1,1.5-1.5h9.545a1.5,1.5,0,0,1,1.5,1.5v9.546A1.5,1.5,0,0,1,140.772,121.527Zm-8.045-3h6.545v-6.546h-6.545Z"/></svg>